custom-analysis
version=1
nRows=4
nColumns=98
inDegrees=no

This file contains tibia displacement and acting force.

Units are S.I. units (seconds, meters, Newtons, ...)
Angles are in degrees.

endheader
time	APT	SIT	knee_angle	aACL_R_force	pACL_R_force	aPCL_R_force	pPCL_R_force	aMCL_R_force	mMCL_R_force	pMCL_R_force	aLCL_R_force	mLCL_R_force	pLCL_R_force	aPCL_L_force	pPCL_L_force	aMCL_L_force	aLCL_L_force	aACL_R_length	pACL_R_length	aPCL_R_length	pPCL_R_length	aMCL_R_length	mMCL_R_length	pMCL_R_length	aLCL_R_length	mLCL_R_length	pLCL_R_length	aPCL_L_length	pPCL_L_length	aMCL_L_length	aLCL_L_length	aACL_R_strain	pACL_R_strain	aPCL_R_strain	pPCL_R_strain	aMCL_R_strain	mMCL_R_strain	pMCL_R_strain	aLCL_R_strain	mLCL_R_strain	pLCL_R_strain	aPCL_L_strain	pPCL_L_strain	aMCL_L_strain	aLCL_L_strain	femur_lat_meniscii_r.femur_lat_r.force.X	femur_lat_meniscii_r.femur_lat_r.force.Y	femur_lat_meniscii_r.femur_lat_r.force.Z	femur_lat_meniscii_r.femur_lat_r.torque.X	femur_lat_meniscii_r.femur_lat_r.torque.Y	femur_lat_meniscii_r.femur_lat_r.torque.Z	femur_lat_meniscii_r.meniscus_lat_r.force.X	femur_lat_meniscii_r.meniscus_lat_r.force.Y	femur_lat_meniscii_r.meniscus_lat_r.force.Z	femur_lat_meniscii_r.meniscus_lat_r.torque.X	femur_lat_meniscii_r.meniscus_lat_r.torque.Y	femur_lat_meniscii_r.meniscus_lat_r.torque.Z	femur_med_meniscii_r.femur_med_r.force.X	femur_med_meniscii_r.femur_med_r.force.Y	femur_med_meniscii_r.femur_med_r.force.Z	femur_med_meniscii_r.femur_med_r.torque.X	femur_med_meniscii_r.femur_med_r.torque.Y	femur_med_meniscii_r.femur_med_r.torque.Z	femur_med_meniscii_r.meniscus_med_r.force.X	femur_med_meniscii_r.meniscus_med_r.force.Y	femur_med_meniscii_r.meniscus_med_r.force.Z	femur_med_meniscii_r.meniscus_med_r.torque.X	femur_med_meniscii_r.meniscus_med_r.torque.Y	femur_med_meniscii_r.meniscus_med_r.torque.Z	femur_med_tibia_r.tibia_upper_r.force.X	femur_med_tibia_r.tibia_upper_r.force.Y	femur_med_tibia_r.tibia_upper_r.force.Z	femur_med_tibia_r.tibia_upper_r.torque.X	femur_med_tibia_r.tibia_upper_r.torque.Y	femur_med_tibia_r.tibia_upper_r.torque.Z	femur_med_tibia_r.femur_med_r.force.X	femur_med_tibia_r.femur_med_r.force.Y	femur_med_tibia_r.femur_med_r.force.Z	femur_med_tibia_r.femur_med_r.torque.X	femur_med_tibia_r.femur_med_r.torque.Y	femur_med_tibia_r.femur_med_r.torque.Z	femur_lat_tibia_r.tibia_upper_r.force.X	femur_lat_tibia_r.tibia_upper_r.force.Y	femur_lat_tibia_r.tibia_upper_r.force.Z	femur_lat_tibia_r.tibia_upper_r.torque.X	femur_lat_tibia_r.tibia_upper_r.torque.Y	femur_lat_tibia_r.tibia_upper_r.torque.Z	femur_lat_tibia_r.femur_lat_r.force.X	femur_lat_tibia_r.femur_lat_r.force.Y	femur_lat_tibia_r.femur_lat_r.force.Z	femur_lat_tibia_r.femur_lat_r.torque.X	femur_lat_tibia_r.femur_lat_r.torque.Y	femur_lat_tibia_r.femur_lat_r.torque.Z	femur_lat_meniscii_force_r	femur_med_meniscii_force_r	femur_lat_tibia_force_r	femur_med_tibia_force_r
      0.15911504	      0.01394838	      0.02732060	     85.57862096	      0.00000000	      0.00000000	   1035.63265798	    578.01884592	     25.50642647	      0.00000000	      0.00000000	      0.00000000	      0.00000000	      0.00000000	      0.00000000	      0.00000000	      0.00000001	      0.00000000	      0.03080647	      0.02454454	      0.03756039	      0.03371409	      0.06208696	      0.05969700	      0.05585969	      0.05117796	      0.04591146	      0.04152927	      0.01525851	      0.01651186	      0.06550154	      0.04489616	     -0.00641908	     -0.02051842	      0.20791224	      0.12802177	      0.03431727	     -0.00161394	     -0.04884064	     -0.08573564	     -0.18479054	     -0.20658911	      0.00000079	     -0.32847694	      0.00000060	     -0.00000086	    -65.12598670	    108.39711683	      4.31278493	     -2.46590362	     -3.18995736	     42.64380483	     65.12598670	   -108.39711683	     -4.31278493	      3.01170143	      1.73415047	      2.18822230	    -66.25711440	    158.46352133	     -6.99355623	      3.20691916	      4.11907752	     62.44125644	     66.25711440	   -158.46352133	      6.99355623	     -2.77747016	     -1.08244424	      2.29570098	    705.52077227	   -803.80165029	    158.39014666	    -16.53838584	    -10.17124130	     21.27749800	   -705.52077227	    803.80165029	   -158.39014666	     15.31127285	     75.81806216	    317.33432714	      0.00000000	      0.00000000	      0.00000000	      0.00000000	      0.00000000	      0.00000000	      0.00000000	      0.00000000	      0.00000000	      0.00000000	      0.00000000	      0.00000000	    126.53034891	    171.89997856	      0.00000000	   1081.17717868
      0.16032022	      0.01383478	      0.02768133	     86.53203458	      0.00000000	      0.00000000	   1045.28710491	    585.43898101	     25.57283738	      0.00000000	      0.00000000	      0.00000000	      0.00000000	      0.00000000	      0.00000000	      0.00000000	      0.00000001	      0.00000000	      0.03076550	      0.02456202	      0.03761668	      0.03376202	      0.06211606	      0.05970232	      0.05588157	      0.05105024	      0.04578844	      0.04144875	      0.01525851	      0.01651186	      0.06550154	      0.04489616	     -0.00774067	     -0.01982062	      0.20972243	      0.12962563	      0.03480202	     -0.00152486	     -0.04846802	     -0.08801724	     -0.18697480	     -0.20812742	      0.00000079	     -0.32847694	      0.00000060	     -0.00000086	    -64.72860801	    110.19783519	      5.20762509	     -2.51668571	     -3.52980685	     43.34659481	     64.72860801	   -110.19783519	     -5.20762509	      3.10126389	      1.71903415	      2.23697921	    -59.84633787	    154.41365149	     -4.37774507	      3.10779460	      2.92058095	     60.85906621	     59.84633787	   -154.41365149	      4.37774507	     -2.61388024	     -0.94265699	      2.15499485	    701.81315272	   -818.01527887	    158.89943575	    -16.50265675	     -9.82640633	     21.54936010	   -701.81315272	    818.01527887	   -158.89943575	     15.33885771	     75.75462753	    322.98969674	      0.00000000	      0.00000000	      0.00000000	      0.00000000	      0.00000000	      0.00000000	      0.00000000	      0.00000000	      0.00000000	      0.00000000	      0.00000000	      0.00000000	    127.90807220	    165.66328674	      0.00000000	   1089.46763535
      0.16133323	      0.01373418	      0.02798443	     87.33678681	      0.00000000	      0.00000000	   1053.42373410	    592.07854662	     25.31697728	      0.00000000	      0.00000000	      0.00000000	      0.00000000	      0.00000000	      0.00000000	      0.00000000	      0.00000001	      0.00000000	      0.03072942	      0.02457621	      0.03766356	      0.03380276	      0.06214010	      0.05970778	      0.05590307	      0.05094190	      0.04568537	      0.04138331	      0.01525851	      0.01651186	      0.06550154	      0.04489616	     -0.00890408	     -0.01925456	      0.21123006	      0.13098861	      0.03520255	     -0.00143357	     -0.04810194	     -0.08995271	     -0.18880493	     -0.20937768	      0.00000079	     -0.32847694	      0.00000060	     -0.00000086	    -64.23766467	    110.44791946	      5.88968730	     -2.52770515	     -3.78991646	     43.42649576	     64.23766467	   -110.44791946	     -5.88968730	      3.13793125	      1.70735450	      2.28291485	    -56.43867739	    151.18091272	     -3.48549797	      3.03078113	      2.49332261	     59.58387630	     56.43867739	   -151.18091272	      3.48549797	     -2.51858298	     -0.87993160	      2.10204086	    698.70827974	   -826.49714518	    160.32012477	    -16.46324835	     -9.55198127	     21.80536668	   -698.70827974	    826.49714518	   -160.32012477	     15.31099097	     76.11032002	    326.34411744	      0.00000000	      0.00000000	      0.00000000	      0.00000000	      0.00000000	      0.00000000	      0.00000000	      0.00000000	      0.00000000	      0.00000000	      0.00000000	      0.00000000	    127.90585949	    161.40985525	      0.00000000	   1094.07190512
      0.16234624	      0.01362820	      0.02828738	     88.14434274	      0.00000000	      0.00000000	   1061.74564290	    599.53989495	     24.84849179	      0.00000000	      0.00000000	      0.00000000	      0.00000000	      0.00000000	      0.00000000	      0.00000000	      0.00000001	      0.00000000	      0.03069127	      0.02458952	      0.03771013	      0.03384403	      0.06216350	      0.05971395	      0.05592729	      0.05083267	      0.04558271	      0.04132015	      0.01525851	      0.01651186	      0.06550154	      0.04489616	     -0.01013454	     -0.01872330	      0.21272763	      0.13236953	      0.03559224	     -0.00133035	     -0.04768947	     -0.09190394	     -0.19062787	     -0.21058427	      0.00000079	     -0.32847694	      0.00000060	     -0.00000086	    -63.87797331	    110.33294387	      6.65622487	     -2.52995605	     -4.08948680	     43.36457656	     63.87797331	   -110.33294387	     -6.65622487	      3.16666674	      1.70148569	      2.32903916	    -51.11600570	    144.13226939	     -1.84389104	      2.87580009	      1.73655654	     56.79931376	     51.11600570	   -144.13226939	      1.84389104	     -2.34016108	     -0.79458057	      1.98366536	    694.84110877	   -831.68698389	    160.60354637	    -16.34558770	     -9.26378254	     22.05702214	   -694.84110877	    831.68698389	   -160.60354637	     15.22282928	     75.99606983	    328.37430221	      0.00000000	      0.00000000	      0.00000000	      0.00000000	      0.00000000	      0.00000000	      0.00000000	      0.00000000	      0.00000000	      0.00000000	      0.00000000	      0.00000000	    127.66385278	    152.93906320	      0.00000000	   1095.58244999
